 http://img9.imageshack.us/img9/7651/hangover2.jpg


Verenigde Staten
Komedie
102 minuten

geregisseerd door Todd Phillips
met Bradley Cooper, Zach Galifianakis en Ed Helms

Phil, Stu, Alan en Doug reizen af naar het exotische Thailand voor de bruiloft van Stu. Na het onvergetelijke vrijgezellenfeest in Las Vegas wat uitliep op een grote ravage kiest Stu nu voor een veilige, ingetogen 'pre-bruiloft' brunch. Echter, dingen gaan (weer) niet zoals gepland. What happens in Vegas, may stay in Vegas, maar wat het gezelschap in Bangkok staat te wachten overtreft al hun verwachtingen...


Vertaald door Simply ReleaseS Toppers
Tokke, Winchestergirl, Biteme en Suurtje




Screenshots:
 
http://img17.imageshack.us/img17/986/screenshot1gi.jpg
 
http://img403.imageshack.us/img403/5408/screenshot2er.jpg
 
http://img20.imageshack.us/img20/9644/screenshot3ki.jpg
 
http://img593.imageshack.us/img593/8797/screenshot4xo.jpg




INFO;


Video
ID                                       : 0
Format                                   : MPEG-4 Visual
Format profile                           : Advanced Simple@L5
Format settings, BVOP                    : 1
Format settings, QPel                    : No
Format settings, GMC                     : No warppoints
Format settings, Matrix                  : Custom
Codec ID                                 : XVID
Codec ID/Hint                            : XviD
Duration                                 : 1h 37mn
Bit rate                                 : 873 Kbps
Width                                    : 608 pixels
Height                                   : 256 pixels
Display aspect ratio                     : 2.40:1
Frame rate                               : 29.970 fps
Color space                              : YUV
Chroma subsampling                       : 4:2:0
Bit depth                                : 8 bits
Scan type                                : Progressive
Compression mode                         : Lossy
Bits/(Pixel*Frame)                       : 0.187
Stream size                              : 609 MiB (87%)
Writing library                          : XviD 64

Audio
ID                                       : 1
Format                                   : MPEG Audio
Format version                           : Version 1
Format profile                           : Layer 3
Mode                                     : Joint stereo
Mode extension                           : MS Stereo
Codec ID                                 : 55
Codec ID/Hint                            : MP3
Duration                                 : 1h 37mn
Bit rate mode                            : Variable
Bit rate                                 : 115 Kbps
Nominal bit rate                         : 128 Kbps
Channel(s)                               : 2 channels
Sampling rate                            : 48.0 KHz
Compression mode                         : Lossy
Stream size                              : 79.9 MiB (11%)
Alignment                                : Aligned on interleaves
Interleave, duration                     : 24 ms (0.72 video frame)
Interleave, preload duration             : 662 ms
Writing library                          : LAME3.98r


 
http://www.imdb.com/title/tt1411697/ 
http://www.moviemeter.nl/film/72141




Deze film wordt u aangeboden door het DutchReleaseTeam.
Voor de reviews van de nieuwste films, muziek, series, games etc
ga dan eens naar http://www.hetmultimediacafe.be

DutchReleaseteam = Hardcoded Dutch Subs